<?xml version="1.0" encoding="utf-8"?>
<!-- Generator: Adobe Illustrator 16.0.0, SVG Export Plug-In . SVG Version: 6.00 Build 0)  -->
<!DOCTYPE svg PUBLIC "-//W3C//DTD SVG 1.1//EN" "http://www.w3.org/Graphics/SVG/1.1/DTD/svg11.dtd">
<svg version="1.1" xmlns="http://www.w3.org/2000/svg" xmlns:xlink="http://www.w3.org/1999/xlink" x="0px" y="0px" width="800px"
	 height="800px" viewBox="0 0 800 800" enable-background="new 0 0 800 800" xml:space="preserve">
<g id="Background" display="none">
	<rect display="inline" fill="#FFFFFF" width="800" height="800"/>
</g>
<g id="Object">
	<g display="none">
		<g display="inline">
			<path fill="#222221" d="M301.225,753.558v-0.205c-0.274,0.319-0.548,0.572-0.813,0.769c-0.269,0.203-0.561,0.35-0.875,0.455
				c-0.313,0.102-0.655,0.156-1.023,0.156c-0.49,0-0.949-0.105-1.364-0.316c-0.417-0.202-0.782-0.5-1.085-0.89
				c-0.307-0.378-0.539-0.833-0.694-1.354c-0.16-0.522-0.237-1.087-0.237-1.691c0-1.284,0.315-2.282,0.938-3
				c0.626-0.714,1.448-1.07,2.47-1.07c0.593,0,1.091,0.102,1.496,0.305c0.407,0.201,0.803,0.514,1.188,0.93v-3.023
				c0-0.421,0.086-0.734,0.255-0.955c0.167-0.219,0.408-0.323,0.713-0.323c0.311,0,0.552,0.103,0.718,0.301
				c0.171,0.194,0.254,0.487,0.254,0.873v9.041c0,0.393-0.091,0.686-0.271,0.882c-0.185,0.19-0.413,0.293-0.701,0.293
				c-0.28,0-0.512-0.103-0.691-0.305C301.317,754.229,301.225,753.934,301.225,753.558z M297.192,750.546
				c0,0.555,0.084,1.031,0.257,1.419c0.175,0.393,0.412,0.684,0.708,0.884c0.301,0.198,0.628,0.3,0.985,0.3
				c0.36,0,0.689-0.102,0.988-0.285c0.299-0.187,0.538-0.471,0.715-0.861c0.176-0.393,0.267-0.874,0.267-1.456
				c0-0.548-0.091-1.014-0.267-1.404c-0.177-0.396-0.416-0.7-0.72-0.907c-0.304-0.209-0.635-0.309-0.996-0.309
				c-0.375,0-0.711,0.105-1.008,0.313c-0.292,0.217-0.521,0.525-0.685,0.927C297.272,749.558,297.192,750.021,297.192,750.546z"/>
			<path fill="#222221" d="M310.949,751.065h-4.01c0.001,0.465,0.096,0.877,0.276,1.231c0.185,0.358,0.426,0.625,0.733,0.801
				c0.303,0.185,0.637,0.271,1.002,0.271c0.245,0,0.47-0.025,0.671-0.083c0.201-0.056,0.395-0.153,0.589-0.27
				c0.19-0.122,0.366-0.255,0.528-0.397c0.158-0.139,0.364-0.33,0.622-0.568c0.104-0.089,0.255-0.141,0.451-0.141
				c0.212,0,0.378,0.057,0.511,0.174c0.128,0.112,0.195,0.282,0.195,0.486c0,0.191-0.072,0.404-0.216,0.653
				c-0.146,0.251-0.365,0.488-0.661,0.713c-0.29,0.227-0.659,0.415-1.105,0.572c-0.439,0.147-0.951,0.224-1.528,0.224
				c-1.317,0-2.337-0.381-3.073-1.127c-0.73-0.752-1.097-1.767-1.097-3.06c0-0.604,0.093-1.168,0.271-1.685
				c0.185-0.519,0.442-0.968,0.789-1.333c0.346-0.373,0.771-0.654,1.279-0.859c0.504-0.193,1.065-0.286,1.684-0.286
				c0.802,0,1.486,0.162,2.058,0.505c0.576,0.335,1.009,0.773,1.294,1.308c0.285,0.534,0.425,1.084,0.425,1.639
				c0,0.517-0.149,0.854-0.444,1.004C311.899,750.987,311.481,751.065,310.949,751.065z M306.939,749.902h3.715
				c-0.049-0.706-0.238-1.223-0.57-1.572c-0.327-0.348-0.76-0.523-1.295-0.523c-0.509,0-0.932,0.176-1.258,0.525
				C307.204,748.688,307.003,749.209,306.939,749.902z"/>
			<path fill="#222221" d="M320.968,752.051c0,0.563-0.14,1.047-0.412,1.447c-0.277,0.409-0.682,0.716-1.221,0.918
				c-0.537,0.211-1.192,0.316-1.964,0.316c-0.734,0-1.369-0.113-1.895-0.339c-0.529-0.225-0.913-0.51-1.164-0.844
				c-0.247-0.338-0.375-0.683-0.375-1.021c0-0.227,0.08-0.415,0.241-0.575c0.162-0.161,0.361-0.241,0.612-0.241
				c0.213,0,0.376,0.051,0.49,0.16c0.117,0.095,0.23,0.25,0.333,0.44c0.213,0.364,0.461,0.633,0.753,0.814
				c0.292,0.179,0.698,0.271,1.202,0.271c0.409,0,0.743-0.093,1.009-0.271c0.265-0.187,0.394-0.394,0.394-0.62
				c0-0.368-0.138-0.635-0.409-0.795c-0.272-0.167-0.723-0.329-1.351-0.474c-0.701-0.176-1.278-0.357-1.719-0.55
				c-0.444-0.196-0.799-0.447-1.066-0.766c-0.262-0.316-0.396-0.704-0.396-1.162c0-0.407,0.119-0.8,0.366-1.168
				c0.243-0.364,0.608-0.65,1.083-0.872c0.483-0.221,1.059-0.324,1.732-0.324c0.531,0,1.009,0.052,1.433,0.165
				c0.424,0.105,0.775,0.256,1.06,0.442c0.284,0.184,0.498,0.39,0.647,0.615c0.145,0.224,0.219,0.441,0.219,0.661
				c0,0.232-0.079,0.43-0.234,0.572c-0.159,0.152-0.382,0.229-0.673,0.229c-0.21,0-0.39-0.055-0.54-0.178
				c-0.147-0.12-0.314-0.299-0.505-0.545c-0.155-0.198-0.34-0.358-0.55-0.48c-0.208-0.118-0.496-0.18-0.857-0.18
				c-0.37,0-0.675,0.082-0.922,0.241c-0.247,0.156-0.366,0.353-0.366,0.588c0,0.214,0.091,0.39,0.267,0.525
				c0.183,0.141,0.424,0.258,0.731,0.344c0.302,0.088,0.729,0.196,1.266,0.334c0.629,0.155,1.153,0.34,1.555,0.551
				c0.404,0.219,0.709,0.473,0.915,0.764C320.865,751.342,320.968,751.678,320.968,752.051z"/>
			<path fill="#222221" d="M323.746,745.444c-0.292,0-0.535-0.096-0.734-0.264c-0.203-0.179-0.306-0.424-0.306-0.746
				c0-0.291,0.103-0.534,0.314-0.718c0.206-0.188,0.444-0.284,0.726-0.284c0.262,0,0.497,0.087,0.702,0.256
				c0.208,0.172,0.307,0.423,0.307,0.746c0,0.315-0.098,0.562-0.299,0.744C324.254,745.349,324.021,745.444,323.746,745.444z
				 M324.754,747.558v5.927c0,0.407-0.098,0.719-0.29,0.929c-0.197,0.214-0.444,0.319-0.745,0.319c-0.301,0-0.545-0.105-0.734-0.325
				c-0.186-0.216-0.279-0.523-0.279-0.923v-5.865c0-0.405,0.094-0.713,0.279-0.911c0.189-0.214,0.434-0.312,0.734-0.312
				c0.301,0,0.548,0.098,0.745,0.312C324.656,746.906,324.754,747.188,324.754,747.558z"/>
			<path fill="#222221" d="M334.416,747.894v5.961c0,0.676-0.068,1.264-0.217,1.753c-0.141,0.496-0.375,0.892-0.696,1.219
				c-0.322,0.316-0.739,0.56-1.26,0.717c-0.52,0.15-1.165,0.228-1.932,0.228c-0.708,0-1.34-0.098-1.897-0.291
				c-0.554-0.2-0.981-0.461-1.289-0.771c-0.294-0.312-0.446-0.634-0.446-0.966c0-0.255,0.088-0.455,0.257-0.608
				c0.168-0.16,0.374-0.242,0.616-0.242c0.3,0,0.563,0.134,0.788,0.4c0.11,0.135,0.222,0.271,0.34,0.412
				c0.123,0.132,0.249,0.254,0.394,0.348c0.142,0.101,0.314,0.174,0.512,0.221c0.201,0.045,0.431,0.07,0.691,0.07
				c0.533,0,0.945-0.07,1.24-0.219c0.292-0.146,0.499-0.356,0.618-0.619c0.114-0.267,0.179-0.552,0.201-0.85
				c0.019-0.308,0.037-0.791,0.048-1.466c-0.317,0.436-0.68,0.778-1.097,1.006c-0.411,0.231-0.902,0.354-1.474,0.354
				c-0.684,0-1.284-0.185-1.799-0.534c-0.515-0.347-0.91-0.839-1.183-1.474c-0.276-0.632-0.416-1.356-0.416-2.189
				c0-0.608,0.086-1.164,0.251-1.662c0.171-0.495,0.404-0.915,0.721-1.253c0.31-0.347,0.669-0.596,1.077-0.775
				c0.402-0.168,0.847-0.252,1.333-0.252c0.58,0,1.084,0.107,1.511,0.335c0.424,0.219,0.819,0.567,1.186,1.041v-0.272
				c0-0.358,0.086-0.634,0.262-0.827c0.181-0.197,0.398-0.29,0.677-0.29c0.395,0,0.657,0.129,0.792,0.383
				C334.353,747.039,334.416,747.404,334.416,747.894z M328.478,750.5c0,0.827,0.181,1.456,0.542,1.881
				c0.364,0.42,0.832,0.638,1.41,0.638c0.339,0,0.663-0.092,0.962-0.279c0.301-0.183,0.553-0.455,0.742-0.822
				c0.192-0.37,0.287-0.816,0.287-1.338c0-0.839-0.185-1.487-0.553-1.953c-0.369-0.468-0.856-0.7-1.456-0.7
				c-0.585,0-1.057,0.221-1.407,0.673C328.65,749.042,328.478,749.674,328.478,750.5z"/>
			<path fill="#222221" d="M338.355,747.528v0.247c0.361-0.477,0.755-0.826,1.184-1.044c0.431-0.227,0.918-0.335,1.477-0.335
				c0.539,0,1.024,0.115,1.451,0.349c0.422,0.237,0.74,0.567,0.952,1.001c0.134,0.251,0.226,0.522,0.263,0.807
				c0.041,0.296,0.061,0.664,0.061,1.115v3.816c0,0.407-0.095,0.719-0.282,0.929c-0.189,0.214-0.432,0.319-0.731,0.319
				c-0.311,0-0.554-0.105-0.745-0.325c-0.19-0.216-0.286-0.523-0.286-0.923v-3.414c0-0.676-0.093-1.197-0.284-1.558
				c-0.184-0.354-0.563-0.53-1.121-0.53c-0.367,0-0.7,0.104-1,0.325c-0.302,0.209-0.522,0.509-0.659,0.889
				c-0.099,0.314-0.151,0.886-0.151,1.715v2.573c0,0.415-0.098,0.729-0.291,0.932c-0.194,0.211-0.44,0.316-0.746,0.316
				c-0.297,0-0.54-0.105-0.728-0.325c-0.192-0.216-0.283-0.523-0.283-0.923v-5.927c0-0.393,0.083-0.684,0.255-0.875
				c0.168-0.193,0.402-0.286,0.697-0.286c0.177,0,0.342,0.041,0.484,0.121c0.146,0.093,0.267,0.22,0.35,0.389
				C338.311,747.074,338.355,747.283,338.355,747.528z"/>
			<path fill="#222221" d="M351.509,751.065h-4.011c0.005,0.465,0.096,0.877,0.28,1.231c0.183,0.358,0.426,0.625,0.73,0.801
				c0.306,0.185,0.638,0.271,1.004,0.271c0.245,0,0.47-0.025,0.671-0.083c0.204-0.056,0.396-0.153,0.594-0.27
				c0.186-0.122,0.362-0.255,0.519-0.397c0.165-0.139,0.371-0.33,0.626-0.568c0.106-0.089,0.258-0.141,0.454-0.141
				c0.209,0,0.378,0.057,0.505,0.174c0.135,0.112,0.197,0.282,0.197,0.486c0,0.191-0.069,0.404-0.213,0.653
				c-0.148,0.251-0.366,0.488-0.661,0.713c-0.29,0.227-0.658,0.415-1.107,0.572c-0.439,0.147-0.952,0.224-1.525,0.224
				c-1.317,0-2.339-0.381-3.074-1.127c-0.729-0.752-1.097-1.767-1.097-3.06c0-0.604,0.093-1.168,0.271-1.685
				c0.179-0.519,0.449-0.968,0.79-1.333c0.347-0.373,0.772-0.654,1.276-0.859c0.505-0.193,1.068-0.286,1.685-0.286
				c0.799,0,1.49,0.162,2.062,0.505c0.573,0.335,1.005,0.773,1.292,1.308c0.282,0.534,0.426,1.084,0.426,1.639
				c0,0.517-0.151,0.854-0.446,1.004C352.463,750.987,352.049,751.065,351.509,751.065z M347.498,749.902h3.719
				c-0.052-0.706-0.241-1.223-0.567-1.572c-0.327-0.348-0.76-0.523-1.297-0.523c-0.509,0-0.929,0.176-1.259,0.525
				C347.771,748.688,347.571,749.209,347.498,749.902z"/>
			<path fill="#222221" d="M360.549,753.558v-0.205c-0.277,0.319-0.548,0.572-0.816,0.769c-0.271,0.203-0.562,0.35-0.871,0.455
				c-0.314,0.102-0.654,0.156-1.026,0.156c-0.49,0-0.946-0.105-1.366-0.316c-0.415-0.202-0.778-0.5-1.084-0.89
				c-0.307-0.378-0.536-0.833-0.694-1.354c-0.159-0.522-0.238-1.087-0.238-1.691c0-1.284,0.315-2.282,0.941-3
				c0.629-0.714,1.454-1.07,2.473-1.07c0.591,0,1.088,0.102,1.492,0.305c0.409,0.201,0.805,0.514,1.191,0.93v-3.023
				c0-0.421,0.085-0.734,0.25-0.955c0.169-0.219,0.408-0.323,0.72-0.323s0.546,0.103,0.716,0.301
				c0.167,0.194,0.252,0.487,0.252,0.873v9.041c0,0.393-0.091,0.686-0.271,0.882c-0.18,0.19-0.416,0.293-0.697,0.293
				c-0.285,0-0.515-0.103-0.698-0.305C360.641,754.229,360.549,753.934,360.549,753.558z M356.515,750.546
				c0,0.555,0.089,1.031,0.26,1.419c0.173,0.393,0.409,0.684,0.71,0.884c0.298,0.198,0.628,0.3,0.98,0.3
				c0.361,0,0.69-0.102,0.992-0.285c0.292-0.187,0.532-0.471,0.71-0.861c0.177-0.393,0.269-0.874,0.269-1.456
				c0-0.548-0.092-1.014-0.269-1.404c-0.178-0.396-0.418-0.7-0.723-0.907c-0.299-0.209-0.633-0.309-0.992-0.309
				c-0.376,0-0.71,0.105-1.009,0.313c-0.295,0.217-0.522,0.525-0.683,0.927C356.595,749.558,356.515,750.021,356.515,750.546z"/>
			<path fill="#222221" d="M370.287,744.517v3.128c0.387-0.395,0.778-0.702,1.178-0.913c0.405-0.22,0.897-0.321,1.488-0.321
				c0.682,0,1.28,0.161,1.792,0.482s0.914,0.791,1.192,1.41c0.287,0.609,0.428,1.335,0.428,2.178c0,0.62-0.08,1.189-0.235,1.707
				c-0.16,0.517-0.388,0.971-0.691,1.346c-0.298,0.383-0.662,0.681-1.091,0.883c-0.428,0.211-0.899,0.316-1.416,0.316
				c-0.319,0-0.611-0.04-0.889-0.113c-0.278-0.069-0.517-0.177-0.713-0.3c-0.195-0.123-0.358-0.247-0.5-0.375
				c-0.134-0.134-0.316-0.33-0.542-0.592v0.205c0,0.387-0.093,0.679-0.282,0.882c-0.182,0.19-0.416,0.293-0.708,0.293
				c-0.283,0-0.52-0.103-0.693-0.293c-0.171-0.203-0.257-0.495-0.257-0.882v-8.954c0-0.415,0.082-0.727,0.251-0.938
				c0.171-0.218,0.402-0.322,0.699-0.322c0.318,0,0.563,0.103,0.734,0.308C370.201,743.85,370.287,744.144,370.287,744.517z
				 M370.384,750.606c0,0.817,0.187,1.444,0.56,1.882c0.373,0.438,0.859,0.66,1.47,0.66c0.512,0,0.956-0.227,1.33-0.672
				c0.377-0.454,0.563-1.094,0.563-1.931c0-0.544-0.081-1.005-0.233-1.399c-0.156-0.386-0.382-0.69-0.665-0.907
				c-0.282-0.208-0.618-0.313-0.996-0.313c-0.391,0-0.738,0.105-1.045,0.313c-0.304,0.217-0.547,0.525-0.725,0.93
				C370.473,749.576,370.384,750.054,370.384,750.606z"/>
			<path fill="#222221" d="M379.701,754.982l0.184-0.458l-2.522-6.35c-0.156-0.368-0.232-0.625-0.232-0.796s0.046-0.34,0.137-0.491
				c0.086-0.15,0.209-0.265,0.367-0.359c0.161-0.09,0.321-0.132,0.496-0.132c0.295,0,0.516,0.093,0.667,0.272
				c0.15,0.194,0.285,0.465,0.399,0.812l1.738,5.048l1.641-4.696c0.132-0.38,0.253-0.677,0.353-0.89
				c0.104-0.211,0.221-0.36,0.338-0.438c0.116-0.07,0.281-0.108,0.5-0.108c0.15,0,0.303,0.041,0.444,0.121
				c0.144,0.084,0.255,0.197,0.329,0.338c0.085,0.14,0.119,0.285,0.119,0.439c-0.02,0.091-0.055,0.223-0.096,0.403
				c-0.044,0.177-0.104,0.358-0.167,0.536l-2.677,6.997c-0.23,0.62-0.454,1.101-0.678,1.45c-0.217,0.354-0.506,0.616-0.869,0.809
				c-0.366,0.183-0.856,0.28-1.471,0.28c-0.602,0-1.052-0.064-1.351-0.19c-0.304-0.136-0.451-0.37-0.451-0.716
				c0-0.236,0.07-0.416,0.213-0.546c0.143-0.13,0.354-0.193,0.636-0.193c0.108,0,0.216,0.017,0.322,0.046
				c0.128,0.032,0.239,0.041,0.338,0.041c0.233,0,0.418-0.031,0.554-0.101c0.135-0.067,0.258-0.192,0.364-0.365
				C379.435,755.574,379.561,755.318,379.701,754.982z"/>
		</g>
		<g display="inline">
			<path fill="#222221" d="M417.653,746.571h0.488v-0.613c0-0.643,0.081-1.154,0.253-1.524c0.154-0.383,0.432-0.655,0.822-0.829
				c0.387-0.178,0.916-0.262,1.6-0.262c1.191,0,1.794,0.294,1.794,0.881c0,0.188-0.068,0.351-0.194,0.49
				c-0.123,0.136-0.268,0.203-0.438,0.203c-0.086,0-0.226-0.016-0.42-0.05c-0.191-0.028-0.355-0.041-0.491-0.041
				c-0.374,0-0.609,0.107-0.717,0.324c-0.103,0.222-0.155,0.533-0.155,0.932v0.489h0.504c0.782,0,1.172,0.239,1.172,0.712
				c0,0.333-0.102,0.545-0.313,0.636c-0.208,0.088-0.491,0.138-0.859,0.138h-0.504v5.428c0,0.4-0.1,0.712-0.287,0.927
				c-0.196,0.216-0.444,0.321-0.75,0.321c-0.292,0-0.532-0.105-0.728-0.321c-0.19-0.215-0.289-0.526-0.289-0.927v-5.428h-0.565
				c-0.304,0-0.534-0.068-0.702-0.214c-0.166-0.133-0.248-0.313-0.248-0.535C416.626,746.817,416.971,746.571,417.653,746.571z"/>
			<path fill="#222221" d="M424.982,751.766v1.719c0,0.415-0.098,0.729-0.29,0.932c-0.2,0.211-0.448,0.316-0.75,0.316
				c-0.29,0-0.536-0.105-0.723-0.319c-0.197-0.21-0.29-0.521-0.29-0.929v-5.709c0-0.92,0.33-1.379,0.998-1.379
				c0.338,0,0.587,0.104,0.733,0.32c0.155,0.213,0.237,0.534,0.253,0.952c0.247-0.418,0.496-0.739,0.756-0.952
				c0.256-0.217,0.599-0.32,1.031-0.32c0.43,0,0.847,0.104,1.256,0.32c0.405,0.213,0.605,0.499,0.605,0.851
				c0,0.261-0.083,0.458-0.258,0.628c-0.171,0.158-0.356,0.238-0.562,0.238c-0.073,0-0.253-0.042-0.541-0.131
				c-0.288-0.102-0.54-0.145-0.768-0.145c-0.297,0-0.544,0.076-0.731,0.239c-0.193,0.155-0.335,0.391-0.449,0.699
				c-0.103,0.311-0.176,0.684-0.216,1.111C424.997,750.633,424.982,751.155,424.982,751.766z"/>
			<path fill="#222221" d="M435.025,751.065h-4.013c0.012,0.465,0.101,0.877,0.283,1.231c0.18,0.358,0.423,0.625,0.73,0.801
				c0.301,0.185,0.635,0.271,0.999,0.271c0.245,0,0.473-0.025,0.675-0.083c0.204-0.056,0.397-0.153,0.588-0.27
				c0.195-0.122,0.367-0.255,0.526-0.397c0.163-0.139,0.373-0.33,0.629-0.568c0.104-0.089,0.254-0.141,0.45-0.141
				c0.21,0,0.379,0.057,0.504,0.174c0.128,0.112,0.198,0.282,0.198,0.486c0,0.191-0.07,0.404-0.217,0.653
				c-0.149,0.251-0.367,0.488-0.653,0.713c-0.295,0.227-0.666,0.415-1.109,0.572c-0.443,0.147-0.956,0.224-1.526,0.224
				c-1.324,0-2.345-0.381-3.076-1.127c-0.731-0.752-1.096-1.767-1.096-3.06c0-0.604,0.091-1.168,0.274-1.685
				c0.176-0.519,0.439-0.968,0.784-1.333c0.346-0.373,0.771-0.654,1.28-0.859c0.5-0.193,1.063-0.286,1.687-0.286
				c0.796,0,1.479,0.162,2.053,0.505c0.578,0.335,1.007,0.773,1.293,1.308s0.431,1.084,0.431,1.639c0,0.517-0.145,0.854-0.447,1.004
				C435.974,750.987,435.566,751.065,435.025,751.065z M431.013,749.902h3.72c-0.055-0.706-0.233-1.223-0.56-1.572
				c-0.337-0.348-0.767-0.523-1.301-0.523c-0.517,0-0.93,0.176-1.264,0.525C431.281,748.688,431.086,749.209,431.013,749.902z"/>
			<path fill="#222221" d="M444.169,751.065h-4.015c0.008,0.465,0.103,0.877,0.284,1.231c0.183,0.358,0.429,0.625,0.729,0.801
				c0.304,0.185,0.64,0.271,1.004,0.271c0.244,0,0.464-0.025,0.67-0.083c0.203-0.056,0.405-0.153,0.588-0.27
				c0.19-0.122,0.366-0.255,0.527-0.397c0.16-0.139,0.375-0.33,0.627-0.568c0.105-0.089,0.253-0.141,0.449-0.141
				c0.211,0,0.385,0.057,0.512,0.174c0.129,0.112,0.192,0.282,0.192,0.486c0,0.191-0.071,0.404-0.211,0.653
				c-0.148,0.251-0.369,0.488-0.664,0.713c-0.29,0.227-0.659,0.415-1.103,0.572c-0.441,0.147-0.953,0.224-1.527,0.224
				c-1.314,0-2.342-0.381-3.072-1.127c-0.732-0.752-1.098-1.767-1.098-3.06c0-0.604,0.093-1.168,0.269-1.685
				c0.182-0.519,0.444-0.968,0.789-1.333c0.347-0.373,0.771-0.654,1.28-0.859c0.507-0.193,1.066-0.286,1.681-0.286
				c0.798,0,1.489,0.162,2.065,0.505c0.568,0.335,1.001,0.773,1.288,1.308c0.285,0.534,0.424,1.084,0.424,1.639
				c0,0.517-0.145,0.854-0.44,1.004C445.119,750.987,444.709,751.065,444.169,751.065z M440.154,749.902h3.718
				c-0.048-0.706-0.236-1.223-0.565-1.572c-0.325-0.348-0.755-0.523-1.291-0.523c-0.513,0-0.929,0.176-1.263,0.525
				C440.431,748.688,440.225,749.209,440.154,749.902z"/>
			<path fill="#222221" d="M449.276,747.55v0.236c0.394-0.474,0.79-0.822,1.206-1.041c0.414-0.228,0.885-0.335,1.412-0.335
				c0.629,0,1.206,0.161,1.74,0.484c0.532,0.328,0.95,0.804,1.262,1.427c0.304,0.622,0.457,1.364,0.457,2.225
				c0,0.629-0.089,1.206-0.268,1.738c-0.174,0.528-0.421,0.973-0.73,1.33c-0.312,0.358-0.674,0.634-1.098,0.828
				c-0.421,0.192-0.88,0.29-1.363,0.29c-0.589,0-1.08-0.122-1.476-0.355c-0.404-0.233-0.78-0.58-1.143-1.033v3.075
				c0,0.899-0.334,1.352-0.978,1.352c-0.393,0-0.645-0.116-0.773-0.346c-0.125-0.234-0.184-0.577-0.184-1.021v-8.847
				c0-0.393,0.084-0.684,0.255-0.875c0.167-0.193,0.401-0.286,0.702-0.286c0.288,0,0.521,0.093,0.703,0.295
				C449.188,746.888,449.276,747.172,449.276,747.55z M453.298,750.526c0-0.546-0.083-1.008-0.249-1.394
				c-0.167-0.392-0.394-0.691-0.684-0.898c-0.292-0.209-0.618-0.309-0.978-0.309c-0.561,0-1.04,0.221-1.431,0.673
				c-0.385,0.443-0.584,1.099-0.584,1.964c0,0.811,0.194,1.45,0.584,1.903c0.379,0.456,0.86,0.683,1.431,0.683
				c0.346,0,0.655-0.102,0.944-0.3c0.294-0.2,0.527-0.491,0.703-0.887C453.207,751.559,453.298,751.085,453.298,750.526z"/>
			<path fill="#222221" d="M458.044,745.444c-0.294,0-0.54-0.096-0.738-0.264c-0.197-0.179-0.305-0.424-0.305-0.746
				c0-0.291,0.107-0.534,0.316-0.718c0.201-0.188,0.446-0.284,0.727-0.284c0.262,0,0.495,0.087,0.701,0.256
				c0.203,0.172,0.308,0.423,0.308,0.746c0,0.315-0.099,0.562-0.304,0.744C458.551,745.349,458.31,745.444,458.044,745.444z
				 M459.053,747.558v5.927c0,0.407-0.099,0.719-0.294,0.929c-0.194,0.214-0.437,0.319-0.745,0.319c-0.3,0-0.541-0.105-0.73-0.325
				c-0.185-0.216-0.282-0.523-0.282-0.923v-5.865c0-0.405,0.098-0.713,0.282-0.911c0.189-0.214,0.431-0.312,0.73-0.312
				c0.309,0,0.551,0.098,0.745,0.312C458.954,746.906,459.053,747.188,459.053,747.558z"/>
			<path fill="#222221" d="M466.28,753.793l-1.813-2.977l-1.113,1.056v1.626c0,0.394-0.097,0.698-0.305,0.913
				c-0.214,0.216-0.455,0.321-0.716,0.321c-0.322,0-0.564-0.105-0.744-0.319c-0.188-0.21-0.273-0.521-0.273-0.929v-8.74
				c0-0.459,0.084-0.806,0.255-1.04c0.183-0.24,0.434-0.361,0.763-0.361c0.313,0,0.562,0.104,0.748,0.323
				c0.186,0.221,0.272,0.534,0.272,0.955v4.972l2.311-2.421c0.287-0.298,0.5-0.505,0.65-0.61c0.15-0.113,0.335-0.165,0.549-0.165
				c0.259,0,0.466,0.074,0.644,0.244c0.168,0.162,0.254,0.363,0.254,0.61c0,0.301-0.279,0.7-0.836,1.201l-1.092,0.997l2.104,3.307
				c0.161,0.247,0.27,0.432,0.339,0.56c0.063,0.124,0.1,0.25,0.1,0.361c0,0.327-0.087,0.582-0.263,0.774
				c-0.18,0.184-0.421,0.281-0.708,0.281c-0.251,0-0.438-0.071-0.579-0.208C466.692,754.394,466.51,754.146,466.28,753.793z"/>
			<path fill="#222221" d="M471.352,754.732c-0.312,0-0.58-0.103-0.802-0.305c-0.229-0.197-0.347-0.478-0.347-0.839
				c0-0.307,0.111-0.57,0.328-0.788c0.217-0.221,0.488-0.333,0.797-0.333c0.313,0,0.585,0.112,0.807,0.328
				c0.225,0.221,0.336,0.479,0.336,0.793c0,0.355-0.111,0.641-0.336,0.839C471.913,754.63,471.654,754.732,471.352,754.732z"/>
			<path fill="#222221" d="M482.164,752.191c0,0.253-0.077,0.526-0.231,0.815c-0.151,0.297-0.386,0.57-0.695,0.835
				c-0.314,0.262-0.712,0.474-1.184,0.629c-0.477,0.164-1.018,0.243-1.608,0.243c-1.268,0-2.259-0.369-2.969-1.107
				c-0.71-0.739-1.066-1.727-1.066-2.968c0-0.844,0.161-1.59,0.486-2.23c0.322-0.648,0.801-1.148,1.418-1.498
				c0.616-0.354,1.347-0.527,2.205-0.527c0.528,0,1.017,0.074,1.461,0.233c0.444,0.15,0.819,0.348,1.129,0.598
				c0.307,0.241,0.543,0.504,0.703,0.783c0.166,0.283,0.245,0.537,0.245,0.778c0,0.251-0.091,0.456-0.276,0.621
				c-0.183,0.173-0.404,0.256-0.663,0.256c-0.17,0-0.317-0.046-0.426-0.131c-0.115-0.087-0.236-0.228-0.376-0.425
				c-0.248-0.381-0.513-0.669-0.788-0.857c-0.271-0.188-0.621-0.283-1.039-0.283c-0.602,0-1.091,0.239-1.466,0.71
				c-0.369,0.476-0.556,1.117-0.556,1.94c0,0.388,0.047,0.74,0.146,1.063c0.089,0.32,0.231,0.596,0.409,0.831
				c0.178,0.221,0.402,0.399,0.652,0.516c0.253,0.116,0.542,0.174,0.844,0.174c0.406,0,0.762-0.099,1.058-0.281
				c0.289-0.201,0.549-0.483,0.773-0.876c0.128-0.23,0.263-0.412,0.406-0.533c0.146-0.137,0.322-0.2,0.533-0.2
				c0.256,0,0.455,0.09,0.625,0.283C482.078,751.777,482.164,751.978,482.164,752.191z"/>
			<path fill="#222221" d="M491.626,750.563c0,0.607-0.087,1.171-0.282,1.685c-0.189,0.521-0.466,0.965-0.827,1.33
				c-0.36,0.373-0.787,0.659-1.291,0.862c-0.504,0.19-1.067,0.293-1.693,0.293c-0.614,0-1.178-0.103-1.672-0.305
				c-0.492-0.197-0.929-0.483-1.294-0.855c-0.355-0.376-0.638-0.816-0.822-1.325c-0.184-0.507-0.28-1.072-0.28-1.685
				c0-0.621,0.097-1.185,0.291-1.71c0.186-0.51,0.456-0.954,0.808-1.318c0.359-0.368,0.791-0.646,1.298-0.843
				c0.506-0.202,1.059-0.295,1.672-0.295c0.626,0,1.187,0.098,1.693,0.298c0.506,0.198,0.938,0.483,1.299,0.857
				c0.363,0.368,0.632,0.807,0.819,1.321C491.539,749.383,491.626,749.948,491.626,750.563z M489.572,750.563
				c0-0.837-0.188-1.487-0.556-1.955c-0.366-0.463-0.858-0.696-1.484-0.696c-0.396,0-0.75,0.1-1.06,0.307
				c-0.303,0.21-0.539,0.521-0.705,0.924c-0.165,0.406-0.248,0.88-0.248,1.421c0,0.537,0.083,1.004,0.248,1.402
				c0.159,0.404,0.396,0.702,0.696,0.918c0.305,0.215,0.659,0.314,1.068,0.314c0.626,0,1.118-0.225,1.484-0.69
				C489.384,752.033,489.572,751.383,489.572,750.563z"/>
			<path fill="#222221" d="M500.065,750.71v2.729c0,0.43-0.095,0.752-0.289,0.968c-0.198,0.22-0.457,0.325-0.776,0.325
				c-0.31,0-0.562-0.105-0.756-0.325c-0.193-0.216-0.295-0.538-0.295-0.968v-3.267c0-0.521-0.014-0.914-0.045-1.204
				c-0.036-0.284-0.131-0.522-0.289-0.7c-0.155-0.188-0.398-0.271-0.736-0.271c-0.667,0-1.113,0.226-1.324,0.688
				c-0.211,0.461-0.32,1.121-0.32,1.98v2.774c0,0.426-0.092,0.745-0.288,0.962c-0.194,0.218-0.45,0.331-0.764,0.331
				c-0.307,0-0.559-0.113-0.763-0.331c-0.197-0.217-0.295-0.536-0.295-0.962v-5.872c0-0.38,0.084-0.675,0.263-0.873
				c0.181-0.2,0.418-0.298,0.703-0.298c0.286,0,0.52,0.093,0.701,0.272c0.194,0.194,0.285,0.457,0.285,0.783v0.192
				c0.354-0.422,0.737-0.734,1.144-0.935c0.403-0.198,0.857-0.3,1.349-0.3c0.52,0,0.961,0.102,1.33,0.307
				c0.374,0.205,0.679,0.516,0.918,0.928c0.345-0.416,0.72-0.729,1.116-0.93c0.393-0.203,0.831-0.305,1.311-0.305
				c0.563,0,1.046,0.107,1.451,0.327c0.409,0.227,0.706,0.541,0.908,0.946c0.179,0.373,0.264,0.953,0.264,1.751v4.005
				c0,0.43-0.103,0.752-0.297,0.968c-0.192,0.22-0.447,0.325-0.769,0.325c-0.31,0-0.567-0.113-0.762-0.331
				c-0.202-0.217-0.3-0.536-0.3-0.962v-3.452c0-0.435-0.015-0.791-0.056-1.06c-0.043-0.262-0.139-0.486-0.3-0.664
				c-0.171-0.183-0.42-0.267-0.756-0.267c-0.271,0-0.523,0.079-0.769,0.237c-0.238,0.157-0.436,0.373-0.571,0.649
				C500.141,749.225,500.065,749.834,500.065,750.71z"/>
		</g>
		<g display="inline">
			<path fill="#222221" d="M401.491,741.106c-0.04-0.128-0.081-0.264-0.124-0.393c0.681-0.063,1.148-0.894,0.815-1.502
				c-0.311-0.688-1.374-0.773-1.784-0.142c-0.436,0.562-0.095,1.444,0.574,1.623c0.047,0.138,0.082,0.285,0.123,0.423
				c-1.03,0.074-2.083,0.301-2.953,0.889c0.091,0.244,0.181,0.506,0.27,0.755c1.751-0.766,3.705-0.602,5.551-0.416
				c0.065-0.243,0.125-0.488,0.188-0.731C403.313,741.24,402.399,741.101,401.491,741.106z"/>
			<path fill="#222221" d="M411.889,743.926c-0.274,0.139-0.328,0.479-0.315,0.754c-0.304,0.298-0.16,0.754-0.19,1.124
				c-0.071,0.212-0.322,0.239-0.497,0.319c-0.244-0.375-0.498-0.727-0.827-1.028l0.007-0.018c-0.355-0.327-0.736-0.627-1.137-0.892
				c-0.32,0.346-0.658,0.689-0.97,1.045c0.613,0.676,1.183,1.41,1.684,2.172c0.349,0.582,0.626,1.202,0.868,1.837
				c0.518-0.271,1.033-0.549,1.553-0.818c-0.274-0.635-0.587-1.256-0.92-1.859c0.229-0.124,0.538-0.245,0.57-0.546
				c0.027-0.332-0.041-0.69,0.15-0.984c0.407,0.261,1.016-0.029,1.021-0.515C412.938,744.003,412.305,743.644,411.889,743.926z"/>
			<path fill="#222221" d="M409.075,747.698c-0.676-1.124-1.407-2.243-2.405-3.104c-1.146-1.014-2.641-1.696-4.193-1.691
				c-1.96-0.017-3.945,0.295-5.75,1.081c-1.7,0.746-3.181,2.084-3.927,3.803c-0.724,1.542-0.71,3.328-0.386,4.976
				c1.801,0.45,3.636,0.849,5.492,0.934c1.838,0.059,3.682,0.102,5.508-0.151c2.503-0.332,4.956-1.119,7.143-2.402
				C410.556,751.142,410.253,749.496,409.075,747.698z M400.218,749.92c-0.34,0.491-0.83,0.872-1.388,1.086
				c-1.057,0.393-2.337,0.122-3.098-0.717c-0.528-0.581-0.841-1.365-0.785-2.158c0.042-0.988,0.653-1.909,1.522-2.371
				c0.658-0.355,1.454-0.418,2.18-0.218c0.301,0.076,0.576,0.218,0.836,0.388c0.537,0.379,0.933,0.935,1.114,1.569
				C400.848,748.308,400.688,749.217,400.218,749.92z M407.817,748.131c-0.127,0.848-0.935,1.56-1.799,1.507
				c-0.501,0.042-0.979-0.192-1.321-0.546c-0.243-0.304-0.442-0.65-0.478-1.052c-0.117-0.854,0.485-1.741,1.327-1.944
				c0.369-0.104,0.757-0.047,1.123,0.041C407.455,746.413,407.975,747.308,407.817,748.131z"/>
			<path fill="#222221" d="M392.821,745.189c-0.731,0.44-1.333,1.066-1.838,1.753c-0.148-0.275-0.191-0.599-0.381-0.844
				c-0.108-0.142-0.305-0.083-0.454-0.083c-0.197,0.016-0.386-0.035-0.57-0.09c0.217-0.301,0.159-0.762-0.168-0.964
				c-0.352-0.248-0.894-0.031-0.99,0.387c-0.145,0.455,0.339,0.916,0.788,0.793c0.24,0.353,0.67,0.297,1.038,0.308
				c0.161,0.288,0.29,0.6,0.502,0.858c-0.394,0.773-0.617,1.642-0.637,2.51c0.506,0.213,1.014,0.426,1.518,0.638
				c0.023-0.553,0.091-1.096,0.171-1.63c0.168-1.181,0.849-2.201,1.656-3.042C393.256,745.57,393.031,745.391,392.821,745.189z"/>
			<path fill="#222221" d="M404.609,754.058c-1.86,0.406-3.776,0.526-5.676,0.442c-1.284-0.061-2.57-0.185-3.821-0.462
				c-0.89-0.183-1.763-0.439-2.643-0.69c0.143,1.116,0.596,2.187,1.241,3.107c0.763,1.071,1.783,2.049,3.049,2.45
				c0.987,0.269,2.165,0.604,4.2,0.567c1.681-0.025,3.333-0.237,4.803-0.87c0.95-0.406,1.838-0.963,2.606-1.658
				c0.662-0.626,1.182-1.404,1.535-2.235c0.349-0.791,0.661-2.202,0.628-2.932C408.712,752.813,406.685,753.712,404.609,754.058z"/>
		</g>
	</g>
	<g>
		<path display="none" fill="#6E6F74" d="M673.964,438.604c-5.989,0-10.861,4.873-10.861,10.861v23.98h-7.08v-61.781
			c0-18.285-14.876-33.161-33.16-33.161H552.47c-18.284,0-33.16,14.876-33.16,33.161v61.781h-7.08v-23.98
			c0-5.988-4.872-10.861-10.861-10.861c-5.99,0-10.863,4.873-10.863,10.861v26.131c0,5.99,4.873,10.863,10.863,10.863h17.941v10.488
			c-11.315,1.297-20.267,10.885-20.534,22.479c-0.013,0.1-0.019,0.203-0.019,0.307v57.348c0,0.836,0.418,1.617,1.114,2.08
			s1.578,0.549,2.35,0.227c25.131-10.506,54.677-16.059,85.444-16.059s60.313,5.553,85.444,16.059
			c0.31,0.129,0.638,0.193,0.964,0.193c0.486,0,0.969-0.143,1.386-0.42c0.696-0.463,1.114-1.244,1.114-2.08v-57.348
			c0-0.096-0.006-0.191-0.017-0.285c-0.257-11.602-9.212-21.201-20.534-22.5v-10.488h17.941c5.989,0,10.861-4.873,10.861-10.863
			v-26.131C684.825,443.477,679.953,438.604,673.964,438.604z M558.098,476.543l16.806-42.576H583l-16.806,42.576H558.098z
			 M562.579,515.031h50.174c8.035,0,14.572,6.537,14.572,14.572s-6.537,14.572-14.572,14.572h-50.174
			c-8.035,0-14.572-6.537-14.572-14.572S554.544,515.031,562.579,515.031z M555.127,433.967l-16.806,42.576h-1.977
			c-3.232,0-5.861-2.629-5.861-5.863v-30.852c0-3.232,2.629-5.861,5.861-5.861H555.127z M521.466,521.303
			c5.281,0,9.578,4.297,9.578,9.58c0,5.281-4.297,9.58-9.578,9.58s-9.578-4.299-9.578-9.58
			C511.888,525.6,516.185,521.303,521.466,521.303z M653.866,540.463c-5.282,0-9.58-4.299-9.58-9.58c0-5.283,4.298-9.58,9.58-9.58
			c5.281,0,9.578,4.297,9.578,9.58C663.444,536.164,659.147,540.463,653.866,540.463z"/>
		<path display="none" fill="#6E6F74" d="M321.195,524.98v-65.709c0-1.381-1.119-2.5-2.5-2.5H63.384c-1.381,0-2.5,1.119-2.5,2.5
			v65.709c0,1.381,1.119,2.5,2.5,2.5h255.312C320.076,527.48,321.195,526.361,321.195,524.98z"/>
		<path display="none" fill="#6E6F74" d="M402.499,539.414h-8.396c2.119-3.494,3.251-7.512,3.251-11.701
			c0-12.482-10.155-22.637-22.637-22.637h-15.17c-0.97,0-1.945,0.066-2.92,0.197v-16.76h34.919c0.006,0,0.013,0,0.02,0
			c1.381,0,2.5-1.119,2.5-2.5c0-0.127-0.009-0.252-0.028-0.373c-0.096-1.629-1.358-4.586-18.047-11.273
			c-7.929-3.176-18.153-6.596-21.864-6.596h-21.219c-1.381,0-2.5,1.119-2.5,2.5v69.143H75.771c-1.381,0-2.5,1.119-2.5,2.5V566.1
			c0,1.381,1.119,2.5,2.5,2.5h43.008c1.212,0,2.25-0.869,2.461-2.063c0.181-1.016,0.268-1.943,0.268-2.834
			c0-4.23-1.63-8.174-4.415-11.115c5.569,0.637,9.91,5.379,9.91,11.115c0,0.564-0.064,1.186-0.202,1.957
			c-0.13,0.729,0.069,1.477,0.544,2.045c0.475,0.566,1.177,0.895,1.917,0.895h28.874c1.212,0,2.25-0.869,2.461-2.063
			c0.181-1.02,0.269-1.947,0.269-2.834c0-4.23-1.63-8.174-4.415-11.115c5.569,0.637,9.908,5.379,9.908,11.115
			c0,0.566-0.064,1.189-0.201,1.957c-0.13,0.729,0.069,1.477,0.544,2.045c0.475,0.566,1.177,0.895,1.917,0.895h117.856
			c1.211,0,2.248-0.867,2.461-2.061c0.181-1.01,0.269-1.938,0.269-2.836c0-4.23-1.63-8.174-4.415-11.117
			c5.569,0.639,9.909,5.381,9.909,11.117c0,0.566-0.064,1.189-0.201,1.957c-0.13,0.729,0.069,1.477,0.544,2.045
			c0.475,0.566,1.177,0.895,1.917,0.895h73.022c1.211,0,2.248-0.867,2.461-2.061c0.181-1.014,0.27-1.941,0.27-2.836
			c0-4.23-1.63-8.174-4.415-11.115c5.569,0.637,9.91,5.379,9.91,11.115c0,0.566-0.063,1.17-0.203,1.961
			c-0.129,0.727,0.07,1.475,0.545,2.041c0.475,0.568,1.177,0.895,1.916,0.895h22.032c1.38,0,2.5-1.119,2.5-2.5v-8.67
			c0-1.381-1.12-2.5-2.5-2.5h-3.891v-4.584h3.891c1.38,0,2.5-1.119,2.5-2.5v-5.932C404.999,540.533,403.879,539.414,402.499,539.414
			z"/>
		<path fill="#FFD751" d="M79.124,253.063c0.804,0.377,1.748,0.298,2.479-0.207c12.7-8.765,28.768-15.251,47.758-19.278
			c5.205-1.104,13.481-1.763,22.139-1.763c11.416,0,21.502,1.057,28.881,2.94c-15.775,2.309-42.505,6.851-53.063,9.129
			c-15.999,3.453-30.458,10.18-46.885,21.814c-0.742,0.525-1.14,1.411-1.04,2.314c0.674,6.113,0.901,7.36,0.925,7.482
			c0.176,0.908,0.838,1.644,1.723,1.915c0.884,0.271,1.845,0.031,2.499-0.623c15.255-15.254,49.328-23.317,98.535-23.317
			c11.274,0,23.283,0.432,35.69,1.283c0.058,0.004,0.115,0.006,0.171,0.006c0.007,0,0.014-0.001,0.02,0c1.381,0,2.5-1.119,2.5-2.5
			c0-0.195-0.022-0.385-0.064-0.567c-0.073-0.769-0.11-1.528-0.11-2.262c0-13.298,10.818-24.117,24.116-24.117
			c0.684,0,1.364,0.029,2.04,0.087c-7.171,3.767-12.025,11.287-12.025,19.871c0,12.386,10.076,22.462,22.462,22.462
			c6.045,0,11.812-2.444,16.03-6.752c42.678,6.673,67.996,15.06,69.901,18.598c3.478,6.458,7.716,7.814,10.659,7.814
			c4.976,0,9.209-3.696,11.301-5.915l19.649,9.511c0.345,0.167,0.718,0.25,1.089,0.25c0.462,0,0.923-0.128,1.328-0.382
			c0.729-0.457,1.172-1.257,1.172-2.118v-40.72c0-0.663-0.263-1.299-0.732-1.768c-0.33-0.33-33.491-33.39-75.307-66.425
			c-56.403-44.559-100.885-67.874-132.211-69.298c-1.626-0.074-3.265-0.111-4.873-0.111c-39.523,0-64.508,22.639-75.884,36.134
			c-0.833,0.988-0.775,2.448,0.133,3.368c0.909,0.919,2.368,0.995,3.366,0.175c19.214-15.79,63.5-19.205,74.645-19.824v47.798
			c-6.45,0.137-24.596,0.638-43.27,2.212c-47.885,4.038-52.623,11.143-54.179,13.478c-4.899,7.349-5.88,26.081-2.999,57.268
			C77.775,251.913,78.319,252.687,79.124,253.063z M204.143,180.198l0.537-45.782l30.76,13.313l-0.555,41.225L204.143,180.198z
			 M252.923,194.645l3.524-36.793l24.764,15.986l-2.013,32.323L252.923,194.645z M324.565,226.202l2.214-18.271l13.761,10.55
			l-1.119,15.918L324.565,226.202z M293.42,211.73l2.83-27.254l18.071,13.902l-1.379,22.154L293.42,211.73z M368.954,251.618
			l0.391-8.106l1.726,1.391l-0.368,7.808L368.954,251.618z M350.949,240.526l1.199-11.381l6.887,5.238l-0.622,10.88L350.949,240.526
			z"/>
		<path display="none" fill="#6E6F74" d="M619.95,200.829v-80.228c0-1.381-1.119-2.5-2.5-2.5H452.692c-1.381,0-2.5,1.119-2.5,2.5
			v80.228c0,1.381,1.119,2.5,2.5,2.5H617.45C618.831,203.329,619.95,202.21,619.95,200.829z"/>
		<path display="none" fill="#6E6F74" d="M719.501,225.994c1.381,0,2.5-1.119,2.5-2.5v-7.243c0-1.381-1.119-2.5-2.5-2.5H708.25
			c2.875-4.371,4.419-9.488,4.419-14.838c0-14.937-12.15-27.089-27.086-27.089h-18.521c-1.363,0-2.74,0.109-4.117,0.327v-21.652
			h43.186c0.008,0,0.016,0,0.02,0c1.381,0,2.5-1.119,2.5-2.5c0-0.127-0.009-0.251-0.027-0.374
			c-0.102-1.76-1.529-5.255-21.689-13.333c-9.634-3.86-22.032-8.014-26.488-8.014h-25.908c-1.381,0-2.5,1.119-2.5,2.5v84.972
			H472.079c-1.381,0-2.5,1.119-2.5,2.5v29.527c0,1.381,1.119,2.5,2.5,2.5h47.623c1.127,0,2.114-0.754,2.411-1.841
			c0.477-1.742,0.708-3.392,0.708-5.044c0-5.529-2.345-10.642-6.282-14.213c7.784,0.063,14.097,6.415,14.097,14.213
			c0,1.13-0.18,2.313-0.565,3.726c-0.206,0.752-0.049,1.557,0.424,2.176c0.473,0.619,1.208,0.983,1.987,0.983h129.852
			c1.128,0,2.116-0.755,2.412-1.844c0.475-1.744,0.705-3.393,0.705-5.041c0-5.528-2.345-10.642-6.281-14.213
			c7.784,0.063,14.098,6.415,14.098,14.213c0,1.125-0.181,2.309-0.567,3.726c-0.206,0.751-0.049,1.557,0.424,2.176
			c0.473,0.62,1.208,0.983,1.987,0.983h44.391c1.381,0,2.5-1.119,2.5-2.5v-10.584c0-1.381-1.119-2.5-2.5-2.5h-5.299v-6.7H719.501z"
			/>
		<g display="none">
			<path display="inline" fill="#00AEA4" d="M738.314,630.498c-4.438-4.783-9.657-9.285-15.496-13.373
				c-5.176-3.67-10.912-7.105-17.546-10.508c-11.337-5.77-23.737-10.518-37.923-14.518c-24.84-6.908-51.677-10.475-79.771-10.6
				l-0.815-0.002c-27.932,0-54.527,3.404-79.062,10.123c-14.291,3.984-26.713,8.74-37.983,14.545
				c-6.629,3.441-12.35,6.934-17.478,10.666c-5.855,4.225-10.996,8.844-15.28,13.729c-0.971,1.107-0.994,2.754-0.057,3.889
				c0.939,1.137,2.563,1.424,3.83,0.678c9.961-5.842,21.339-10.643,34.783-14.678c11.23-3.357,23.237-6.039,36.707-8.193
				c22.999-3.67,47.05-5.453,73.525-5.453l1.73,0.004c27.11,0.158,51.733,2.109,75.275,5.965c13.37,2.186,25.402,4.873,36.784,8.211
				c13.321,3.906,24.815,8.547,35.139,14.189c0.454,0.248,0.948,0.367,1.437,0.367c0.9,0,1.784-0.406,2.369-1.158
				C739.387,633.221,739.315,631.576,738.314,630.498z"/>
		</g>
		<g display="none">
			<path display="inline" fill="#00AEA4" d="M369.976,604.084c27.711-5.795,28.461-9.033,28.844-10.686
				c0.207-0.891-0.004-1.828-0.574-2.543c-0.569-0.717-1.434-1.135-2.349-1.135H69.383c-1.018,0-1.967,0.518-2.52,1.373
				c-0.553,0.854-0.634,1.932-0.216,2.859c0.851,1.887,2.331,2.436,10.465,2.436c20.046,0.199,41.766,0.463,64.76,1.035l0-0.004
				c0.108,0.004,0.254,0.01,0.435,0.014c15.885,0.316,158.125,4.041,259.532,36.889c0.303,0.1,0.614,0.146,0.925,0.146
				c0.613,0,1.22-0.188,1.732-0.551c0.772-0.547,1.241-1.426,1.266-2.371C406.08,619.369,388.433,610.264,369.976,604.084z"/>
		</g>
		<path fill="none" d="M177.612,411.593c6.566-12.226,14.065-22.273,22.923-30.715c7.403-7.029,15.316-12.637,24.191-17.147
			c15.155-7.676,31-11.408,48.442-11.408l1.154,0.005c17.868,0.332,34.095,4.415,49.61,12.482
			c8.81,4.574,16.739,10.193,24.241,17.181c8.777,8.171,16.352,17.885,23.158,29.697c0.3,0.518,0.625,0.769,0.947,0.769
			c0.594,0,1.175-0.85,1.561-2.421c0.596-2.432,0.548-5.873-0.111-8.13c-2.923-10-6.362-19.423-10.214-27.988
			c-3.409-7.672-7.188-14.861-11.562-21.984c-7.467-12.071-15.639-22.007-24.993-30.384c-16.366-14.453-34.053-21.916-52.571-22.182
			l-0.529-0.002c-18.411,0-35.94,7.125-52.112,21.184c-9.42,8.34-17.606,18.292-25.031,30.435
			c-4.367,7.201-8.137,14.509-11.519,22.325c-3.858,8.838-7.247,18.504-10.071,28.728c-0.64,2.318-0.656,5.767-0.038,8.14
			C175.705,412.554,176.775,413.152,177.612,411.593z"/>
		<text transform="matrix(1 0 0 1 210.1055 349.0254)" display="none" font-family="'MyriadPro-Regular'" font-size="26">Mo Bis</text>
		<g display="none">
			<path display="inline" fill="#00AEA4" d="M460.422,276.561c20.044,0.199,41.763,0.462,64.761,1.034
				c0.052,0.003,0.111,0.005,0.179,0.008c9.804,0.393,98.717,4.794,200.438,37.743c0.303,0.098,0.614,0.146,0.925,0.146
				c0.613,0,1.22-0.188,1.732-0.551c0.772-0.546,1.242-1.425,1.267-2.371c0.316-12.177-17.33-21.284-35.787-27.463
				c27.711-5.793,28.46-9.032,28.844-10.685c0.206-0.89-0.004-1.825-0.571-2.541c-0.566-0.716-1.429-1.134-2.342-1.137
				l-267.164-0.852c-0.004,0-0.007,0-0.01,0c-1.017,0-1.965,0.515-2.518,1.369c-0.556,0.857-0.637,1.937-0.216,2.867
				C450.811,276.013,452.291,276.561,460.422,276.561z"/>
		</g>
	</g>
	<text transform="matrix(1 0 0 1 389.0044 285.0044)" fill="#FFFFFF" font-family="'SegoeUI'" font-size="52">MOBIS</text>
</g>
</svg>
